# Blender 3.1.0
# www.blender.org
mtllib arch_triangulated.mtl
o Cube
v 23.999998 11.799999 -5.800000
v 23.999998 -11.799999 -5.800000
v 23.999998 11.799999 5.800000
v 23.999998 -11.799999 5.800000
v -23.999998 11.799999 -5.800000
v -23.999998 -11.799999 -5.800000
v -23.999998 11.799999 5.800000
v -23.999998 -11.799999 5.800000
v -2.809301 2.323306 5.800000
v -1.411447 2.530658 5.800000
v 0.000001 2.599998 5.800000
v 1.411446 2.530658 5.800000
v 5.510640 1.503864 5.800000
v 4.180099 1.979939 5.800000
v 2.809300 2.323306 5.800000
v 8.000209 0.173162 5.800000
v 9.135262 -0.668651 5.800000
v 13.303863 -6.289359 5.800000
v 12.699665 -5.011887 5.800000
v 11.973162 -3.799790 5.800000
v 11.131350 -2.664738 5.800000
v 10.182337 -1.617664 5.800000
v 6.788110 0.899664 5.800000
v -14.399998 -11.799999 5.800000
v -14.330658 -10.388553 5.800000
v -14.123305 -8.990700 5.800000
v -13.779940 -7.619901 5.800000
v -13.303863 -6.289359 5.800000
v -12.699665 -5.011888 5.800000
v -11.973161 -3.799790 5.800000
v -11.131350 -2.664738 5.800000
v -10.182337 -1.617664 5.800000
v -8.000211 0.173160 5.800000
v -4.180098 1.979939 5.800000
v -5.510641 1.503863 5.800000
v -6.788113 0.899664 5.800000
v 14.399998 -11.799999 5.800000
v 14.330658 -10.388554 5.800000
v 14.123306 -8.990700 5.800000
v 13.779940 -7.619900 5.800000
v -9.135262 -0.668651 5.800000
v -14.399998 -11.799999 -5.800000
v 14.399998 -11.799999 -5.800000
v -13.303863 -6.289359 -5.800000
v -12.699665 -5.011888 -5.800000
v -11.973161 -3.799790 -5.800000
v -8.000211 0.173160 -5.800000
v -9.135262 -0.668651 -5.800000
v -11.131350 -2.664738 -5.800000
v -10.182337 -1.617664 -5.800000
v -5.510641 1.503863 -5.800000
v -2.809301 2.323306 -5.800000
v -4.180098 1.979939 -5.800000
v 0.000001 2.599998 -5.800000
v 2.809300 2.323306 -5.800000
v 1.411446 2.530658 -5.800000
v -1.411447 2.530658 -5.800000
v -6.788113 0.899664 -5.800000
v -14.330658 -10.388553 -5.800000
v -14.123305 -8.990700 -5.800000
v -13.779940 -7.619901 -5.800000
v 5.510640 1.503864 -5.800000
v 4.180099 1.979939 -5.800000
v 8.000209 0.173162 -5.800000
v 6.788110 0.899664 -5.800000
v 14.330658 -10.388554 -5.800000
v 14.123306 -8.990700 -5.800000
v 13.779940 -7.619900 -5.800000
v 13.303863 -6.289359 -5.800000
v 12.699665 -5.011887 -5.800000
v 11.973162 -3.799790 -5.800000
v 11.131350 -2.664738 -5.800000
v 10.182337 -1.617664 -5.800000
v 9.135262 -0.668651 -5.800000
vn -0.0000 11.8000 -0.0000
vn -0.0000 -0.0000 5.8000
vn -24.0000 -0.0000 -0.0000
vn -0.0000 -11.8000 -0.0000
vn 24.0000 -0.0000 -0.0000
vn -0.0000 -0.0000 -5.8000
vn 23.9930 -0.2849 -0.0000
vn 23.9364 -0.8583 -0.0000
vn 23.8200 -1.4423 -0.0000
vn 23.6370 -2.0445 -0.0000
vn 23.3763 -2.6727 -0.0000
vn 23.0212 -3.3356 -0.0000
vn 22.5477 -4.0424 -0.0000
vn 21.9219 -4.8030 -0.0000
vn 21.0959 -5.6266 -0.0000
vn 20.0036 -6.5200 -0.0000
vn 18.5557 -7.4838 -0.0000
vn 16.6384 -8.5040 -0.0000
vn 14.1221 -9.5410 -0.0000
vn 10.8947 -10.5141 -0.0000
vn 6.9322 -11.2970 -0.0000
vn 2.3861 -11.7415 -0.0000
vn -2.3861 -11.7415 -0.0000
vn -6.9322 -11.2970 -0.0000
vn -10.8947 -10.5141 -0.0000
vn -14.1220 -9.5410 -0.0000
vn -16.6384 -8.5040 -0.0000
vn -18.5557 -7.4838 -0.0000
vn -20.0036 -6.5200 -0.0000
vn -21.0959 -5.6266 -0.0000
vn -21.9219 -4.8030 -0.0000
vn -22.5477 -4.0424 -0.0000
vn -23.0212 -3.3356 -0.0000
vn -23.3763 -2.6727 -0.0000
vn -23.6370 -2.0445 -0.0000
vn -23.8200 -1.4423 -0.0000
vn -23.9364 -0.8583 -0.0000
vn -23.9930 -0.2849 -0.0000
vn -0.0000 -0.0001 5.8000
vt 0.625000 0.500000
vt 0.375000 0.500000
vt 0.625000 0.750000
vt 0.375000 0.750000
vt 0.875000 0.500000
vt 0.625000 0.250000
vt 0.125000 0.500000
vt 0.375000 0.250000
vt 0.875000 0.750000
vt 0.625000 1.000000
vt 0.625000 0.000000
vt 0.375000 0.000000
vt 0.125000 0.750000
vt 0.375000 1.000000
vt 0.524611 0.889632
vt 0.781250 0.995763
vt 0.526808 0.882351
vt 0.765625 0.995763
vt 0.527542 0.875000
vt 0.750000 0.995763
vt 0.526808 0.867649
vt 0.734375 0.995763
vt 0.515931 0.846299
vt 0.687500 0.995763
vt 0.520974 0.853229
vt 0.703125 0.995763
vt 0.524611 0.860368
vt 0.718750 0.995763
vt 0.501834 0.833332
vt 0.656250 0.995763
vt 0.492917 0.827421
vt 0.640625 0.995763
vt 0.433375 0.805709
vt 0.562500 0.995763
vt 0.446908 0.808856
vt 0.578125 0.995763
vt 0.459748 0.812640
vt 0.593750 0.995763
vt 0.471772 0.817024
vt 0.609375 0.995763
vt 0.482864 0.821967
vt 0.625000 0.995763
vt 0.671875 0.995763
vt 0.509530 0.839645
vt 0.375000 0.950000
vt 0.175000 0.750000
vt 1.000000 0.995763
vt 0.389952 0.949639
vt 0.984375 0.995763
vt 0.404760 0.948559
vt 0.968750 0.995763
vt 0.419281 0.946771
vt 0.953125 0.995763
vt 0.433375 0.944291
vt 0.937500 0.995763
vt 0.446908 0.941144
vt 0.921875 0.995763
vt 0.459748 0.937360
vt 0.906250 0.995763
vt 0.471772 0.932976
vt 0.890625 0.995763
vt 0.482864 0.928033
vt 0.875000 0.995763
vt 0.501834 0.916668
vt 0.843750 0.995763
vt 0.520974 0.896771
vt 0.796875 0.995763
vt 0.515931 0.903701
vt 0.812500 0.995763
vt 0.509530 0.910355
vt 0.828125 0.995763
vt 0.500000 0.995763
vt 0.375000 0.800000
vt 0.325000 0.750000
vt 0.389952 0.800361
vt 0.515625 0.995763
vt 0.404760 0.801441
vt 0.531250 0.995763
vt 0.419281 0.803230
vt 0.546875 0.995763
vt 0.492917 0.922579
vt 0.859375 0.995763
vt 0.175000 0.500000
vt 0.375000 0.300000
vt 1.000000 0.504237
vt 0.325000 0.500000
vt 0.375000 0.450000
vt 0.500000 0.504237
vt 0.433375 0.305709
vt 0.937500 0.504237
vt 0.446908 0.308856
vt 0.921875 0.504237
vt 0.459748 0.312640
vt 0.906250 0.504237
vt 0.501834 0.333332
vt 0.843750 0.504237
vt 0.492917 0.327421
vt 0.859375 0.504237
vt 0.471772 0.317024
vt 0.890625 0.504237
vt 0.482864 0.321967
vt 0.875000 0.504237
vt 0.515931 0.346299
vt 0.812500 0.504237
vt 0.524611 0.360368
vt 0.781250 0.504237
vt 0.520974 0.353229
vt 0.796875 0.504237
vt 0.527542 0.375000
vt 0.750000 0.504237
vt 0.524611 0.389632
vt 0.718750 0.504237
vt 0.526808 0.382351
vt 0.734375 0.504237
vt 0.526808 0.367649
vt 0.765625 0.504237
vt 0.509530 0.339645
vt 0.828125 0.504237
vt 0.389952 0.300361
vt 0.984375 0.504237
vt 0.404760 0.301441
vt 0.968750 0.504237
vt 0.419281 0.303230
vt 0.953125 0.504237
vt 0.515931 0.403701
vt 0.687500 0.504237
vt 0.520974 0.396771
vt 0.703125 0.504237
vt 0.501834 0.416668
vt 0.656250 0.504237
vt 0.509530 0.410355
vt 0.671875 0.504237
vt 0.389952 0.449639
vt 0.515625 0.504237
vt 0.404760 0.448559
vt 0.531250 0.504237
vt 0.419281 0.446771
vt 0.546875 0.504237
vt 0.433375 0.444291
vt 0.562500 0.504237
vt 0.446908 0.441144
vt 0.578125 0.504237
vt 0.459748 0.437360
vt 0.593750 0.504237
vt 0.471772 0.432976
vt 0.609375 0.504237
vt 0.482864 0.428033
vt 0.625000 0.504237
vt 0.492917 0.422579
vt 0.640625 0.504237
s 0
usemtl Material
f 5/5/1 3/3/1 1/1/1
f 3/3/2 10/17/2 11/19/2
f 7/11/3 6/8/3 8/12/3
f 2/2/4 37/74/4 43/86/4
f 6/7/4 24/46/4 8/13/4
f 1/1/5 4/4/5 2/2/5
f 5/6/6 56/113/6 54/109/6
f 24/47/7 59/120/7 25/49/7
f 25/49/8 60/122/8 26/51/8
f 26/51/9 61/124/9 27/53/9
f 27/53/10 44/90/10 28/55/10
f 28/55/11 45/92/11 29/57/11
f 29/57/12 46/94/12 30/59/12
f 30/59/13 49/100/13 31/61/13
f 31/61/14 50/102/14 32/63/14
f 32/63/15 48/98/15 41/82/15
f 41/82/16 47/96/16 33/65/16
f 33/65/17 58/118/17 36/71/17
f 36/71/18 51/104/18 35/69/18
f 35/69/19 53/108/19 34/67/19
f 34/67/20 52/106/20 9/16/20
f 9/16/21 57/116/21 10/18/21
f 10/18/22 54/110/22 11/20/22
f 11/20/23 56/114/23 12/22/23
f 12/22/24 55/112/24 15/28/24
f 15/28/25 63/128/25 14/26/25
f 14/26/26 62/126/26 13/24/26
f 13/24/27 65/132/27 23/43/27
f 65/132/28 16/30/28 23/43/28
f 64/130/29 17/32/29 16/30/29
f 74/150/30 22/42/30 17/32/30
f 73/148/31 21/40/31 22/42/31
f 72/146/32 20/38/32 21/40/32
f 71/144/33 19/36/33 20/38/33
f 70/142/34 18/34/34 19/36/34
f 69/140/35 40/80/35 18/34/35
f 68/138/36 39/78/36 40/80/36
f 67/136/37 38/76/37 39/78/37
f 38/76/38 43/88/38 37/72/38
f 5/5/1 7/9/1 3/3/1
f 38/75/2 37/73/2 4/4/2
f 7/10/2 8/14/2 24/45/2
f 7/10/2 24/45/2 25/48/2
f 38/75/2 4/4/2 3/3/2
f 39/77/2 38/75/2 3/3/2
f 7/10/2 25/48/2 26/50/2
f 7/10/2 26/50/2 27/52/2
f 40/79/2 39/77/2 3/3/2
f 18/33/2 40/79/2 3/3/2
f 7/10/2 27/52/2 28/54/2
f 7/10/2 28/54/2 29/56/2
f 19/35/2 18/33/2 3/3/2
f 20/37/2 19/35/2 3/3/2
f 7/10/2 29/56/2 30/58/2
f 7/10/2 30/58/2 31/60/2
f 21/39/2 20/37/2 3/3/2
f 22/41/2 21/39/2 3/3/2
f 7/10/2 31/60/2 32/62/2
f 7/10/2 32/62/2 41/81/2
f 17/31/2 22/41/2 3/3/2
f 16/29/2 17/31/2 3/3/2
f 7/10/2 41/81/2 33/64/2
f 7/10/2 33/64/2 36/70/2
f 23/44/2 16/29/2 3/3/2
f 13/23/2 23/44/2 3/3/2
f 7/10/2 36/70/2 35/68/2
f 7/10/2 35/68/2 34/66/2
f 14/25/2 13/23/2 3/3/2
f 15/27/2 14/25/2 3/3/2
f 3/3/2 7/10/2 34/66/2
f 3/3/39 34/66/39 9/15/39
f 12/21/2 15/27/2 3/3/2
f 11/19/2 12/21/2 3/3/2
f 3/3/2 9/15/2 10/17/2
f 7/11/3 5/6/3 6/8/3
f 2/2/4 4/4/4 37/74/4
f 6/7/4 42/83/4 24/46/4
f 1/1/5 3/3/5 4/4/5
f 42/84/6 6/8/6 5/6/6
f 1/1/6 2/2/6 43/87/6
f 1/1/6 43/87/6 66/133/6
f 59/119/6 42/84/6 5/6/6
f 60/121/6 59/119/6 5/6/6
f 1/1/6 66/133/6 67/135/6
f 1/1/6 67/135/6 68/137/6
f 61/123/6 60/121/6 5/6/6
f 44/89/6 61/123/6 5/6/6
f 1/1/6 68/137/6 69/139/6
f 1/1/6 69/139/6 70/141/6
f 45/91/6 44/89/6 5/6/6
f 46/93/6 45/91/6 5/6/6
f 1/1/6 70/141/6 71/143/6
f 1/1/6 71/143/6 72/145/6
f 49/99/6 46/93/6 5/6/6
f 50/101/6 49/99/6 5/6/6
f 1/1/6 72/145/6 73/147/6
f 1/1/6 73/147/6 74/149/6
f 48/97/6 50/101/6 5/6/6
f 47/95/6 48/97/6 5/6/6
f 1/1/6 74/149/6 64/129/6
f 1/1/6 64/129/6 65/131/6
f 58/117/6 47/95/6 5/6/6
f 51/103/6 58/117/6 5/6/6
f 1/1/6 65/131/6 62/125/6
f 1/1/6 62/125/6 63/127/6
f 53/107/6 51/103/6 5/6/6
f 52/105/6 53/107/6 5/6/6
f 5/6/6 1/1/6 63/127/6
f 5/6/6 63/127/6 55/111/6
f 57/115/6 52/105/6 5/6/6
f 54/109/6 57/115/6 5/6/6
f 5/6/6 55/111/6 56/113/6
f 24/47/7 42/85/7 59/120/7
f 25/49/8 59/120/8 60/122/8
f 26/51/9 60/122/9 61/124/9
f 27/53/10 61/124/10 44/90/10
f 28/55/11 44/90/11 45/92/11
f 29/57/12 45/92/12 46/94/12
f 30/59/13 46/94/13 49/100/13
f 31/61/14 49/100/14 50/102/14
f 32/63/15 50/102/15 48/98/15
f 41/82/16 48/98/16 47/96/16
f 33/65/17 47/96/17 58/118/17
f 36/71/18 58/118/18 51/104/18
f 35/69/19 51/104/19 53/108/19
f 34/67/20 53/108/20 52/106/20
f 9/16/21 52/106/21 57/116/21
f 10/18/22 57/116/22 54/110/22
f 11/20/23 54/110/23 56/114/23
f 12/22/24 56/114/24 55/112/24
f 15/28/25 55/112/25 63/128/25
f 14/26/26 63/128/26 62/126/26
f 13/24/27 62/126/27 65/132/27
f 65/132/28 64/130/28 16/30/28
f 64/130/29 74/150/29 17/32/29
f 74/150/30 73/148/30 22/42/30
f 73/148/31 72/146/31 21/40/31
f 72/146/32 71/144/32 20/38/32
f 71/144/33 70/142/33 19/36/33
f 70/142/34 69/140/34 18/34/34
f 69/140/35 68/138/35 40/80/35
f 68/138/36 67/136/36 39/78/36
f 67/136/37 66/134/37 38/76/37
f 38/76/38 66/134/38 43/88/38
