# Blender 3.1.0
# www.blender.org
mtllib crescent.mtl
o Cylinder
v 0.000000 -5.900000 -13.999999
v 0.000000 5.900000 -13.999999
v 1.372240 -5.900000 -13.932585
v 1.372240 5.900000 -13.932585
v 2.731264 -5.900000 -13.730992
v 2.731264 5.900000 -13.730992
v 4.063985 -5.900000 -13.397164
v 4.063985 5.900000 -13.397164
v 5.357568 -5.900000 -12.934312
v 5.357568 5.900000 -12.934312
v 6.599554 -5.900000 -12.346897
v 6.599554 5.900000 -12.346897
v 7.777983 -5.900000 -11.640574
v 7.777983 5.900000 -11.640574
v 8.881505 -5.900000 -10.822146
v 8.881505 5.900000 -10.822146
v 9.899494 -5.900000 -9.899494
v 9.899494 5.900000 -9.899494
v 10.822145 -5.900000 -8.881505
v 10.822145 5.900000 -8.881505
v 11.640574 -5.900000 -7.777983
v 11.640574 5.900000 -7.777983
v 12.346896 -5.900000 -6.599555
v 12.346896 5.900000 -6.599555
v 12.934312 -5.900000 -5.357568
v 12.934312 5.900000 -5.357568
v 13.397164 -5.900000 -4.063984
v 13.397164 5.900000 -4.063984
v 13.730992 -5.900000 -2.731265
v 13.730992 5.900000 -2.731265
v 13.932585 -5.900000 -1.372240
v 13.932585 5.900000 -1.372240
v 13.999999 -5.900000 0.000001
v 13.999999 5.900000 0.000001
v 13.932585 -5.900000 1.372239
v 13.932585 5.900000 1.372239
v 13.730992 -5.900000 2.731264
v 13.730992 5.900000 2.731264
v 13.397163 -5.900000 4.063986
v 13.397163 5.900000 4.063986
v 12.934313 -5.900000 5.357567
v 12.934313 5.900000 5.357567
v 12.346897 -5.900000 6.599552
v 12.346897 5.900000 6.599552
v 11.640574 -5.900000 7.777982
v 11.640574 5.900000 7.777982
v 10.822146 -5.900000 8.881505
v 10.822146 5.900000 8.881505
v 9.899494 -5.900000 9.899494
v 9.899494 5.900000 9.899494
v 8.881505 -5.900000 10.822146
v 8.881505 5.900000 10.822146
v 7.777982 -5.900000 11.640574
v 7.777982 5.900000 11.640574
v 6.599555 -5.900000 12.346896
v 6.599555 5.900000 12.346896
v 5.357568 -5.900000 12.934312
v 5.357568 5.900000 12.934312
v 4.063986 -5.900000 13.397164
v 4.063986 5.900000 13.397164
v 2.731264 -5.900000 13.730993
v 2.731264 5.900000 13.730993
v 1.372239 -5.900000 13.932585
v 1.372239 5.900000 13.932585
v -0.000001 -5.900000 13.999999
v -0.000001 5.900000 13.999999
v -0.050680 5.900000 13.997509
v -0.050680 -5.900000 13.997509
v -0.050680 5.900000 -13.997509
v -0.050680 -5.900000 -13.997509
vn 0.6869 -0.0000 -13.9831
vn 2.0542 -0.0000 -13.8485
vn 3.4017 -0.0000 -13.5804
vn 4.7165 -0.0000 -13.1816
vn 5.9858 -0.0000 -12.6559
vn 7.1974 -0.0000 -12.0082
vn 8.3398 -0.0000 -11.2449
vn 9.4018 -0.0000 -10.3733
vn 10.3733 -0.0000 -9.4018
vn 11.2449 -0.0000 -8.3398
vn 12.0082 -0.0000 -7.1974
vn 12.6559 -0.0000 -5.9858
vn 13.1816 -0.0000 -4.7165
vn 13.5804 -0.0000 -3.4017
vn 13.8485 -0.0000 -2.0542
vn 13.9831 -0.0000 -0.6869
vn 13.9831 -0.0000 0.6869
vn 13.8485 -0.0000 2.0542
vn 13.5804 -0.0000 3.4017
vn 13.1816 -0.0000 4.7165
vn 12.6558 -0.0000 5.9858
vn 12.0082 -0.0000 7.1974
vn 11.2449 -0.0000 8.3398
vn 10.3733 -0.0000 9.4018
vn 9.4018 -0.0000 10.3733
vn 8.3398 -0.0000 11.2449
vn 7.1974 -0.0000 12.0082
vn 5.9858 -0.0000 12.6559
vn 4.7165 -0.0000 13.1816
vn 3.4017 -0.0000 13.5804
vn 2.0542 -0.0000 13.8485
vn 0.6869 -0.0000 13.9831
vn -0.6870 -0.0000 13.9831
vn -0.0000 5.9000 -0.0000
vn -0.6870 -0.0000 -13.9831
vn -0.0000 -5.9000 -0.0000
vn -14.0000 -0.0000 -0.0000
vt 1.000000 0.500000
vt 0.000000 0.500000
vt 0.750000 0.490000
vt 1.000000 1.000000
vt 0.250000 0.490000
vt 0.000000 1.000000
vt 0.984375 0.500000
vt 0.773524 0.488844
vt 0.984375 1.000000
vt 0.273524 0.488844
vt 0.968750 0.500000
vt 0.796822 0.485388
vt 0.968750 1.000000
vt 0.296822 0.485388
vt 0.953125 0.500000
vt 0.819668 0.479666
vt 0.953125 1.000000
vt 0.319668 0.479666
vt 0.937500 0.500000
vt 0.841844 0.471731
vt 0.937500 1.000000
vt 0.341844 0.471731
vt 0.921875 0.500000
vt 0.863135 0.461661
vt 0.921875 1.000000
vt 0.363135 0.461661
vt 0.906250 0.500000
vt 0.883337 0.449553
vt 0.906250 1.000000
vt 0.383337 0.449553
vt 0.890625 0.500000
vt 0.902254 0.435522
vt 0.890625 1.000000
vt 0.402254 0.435522
vt 0.875000 0.500000
vt 0.919706 0.419706
vt 0.875000 1.000000
vt 0.419706 0.419706
vt 0.859375 0.500000
vt 0.935522 0.402254
vt 0.859375 1.000000
vt 0.435522 0.402254
vt 0.843750 0.500000
vt 0.949553 0.383337
vt 0.843750 1.000000
vt 0.449553 0.383337
vt 0.828125 0.500000
vt 0.961661 0.363135
vt 0.828125 1.000000
vt 0.461661 0.363135
vt 0.812500 0.500000
vt 0.971731 0.341844
vt 0.812500 1.000000
vt 0.471731 0.341844
vt 0.796875 0.500000
vt 0.979666 0.319668
vt 0.796875 1.000000
vt 0.479666 0.319668
vt 0.781250 0.500000
vt 0.985388 0.296822
vt 0.781250 1.000000
vt 0.485388 0.296822
vt 0.765625 0.500000
vt 0.988844 0.273524
vt 0.765625 1.000000
vt 0.488844 0.273524
vt 0.750000 0.500000
vt 0.990000 0.250000
vt 0.750000 1.000000
vt 0.490000 0.250000
vt 0.734375 0.500000
vt 0.988844 0.226476
vt 0.734375 1.000000
vt 0.488844 0.226476
vt 0.718750 0.500000
vt 0.985388 0.203178
vt 0.718750 1.000000
vt 0.485388 0.203178
vt 0.703125 0.500000
vt 0.979666 0.180332
vt 0.703125 1.000000
vt 0.479666 0.180332
vt 0.687500 0.500000
vt 0.971731 0.158156
vt 0.687500 1.000000
vt 0.471731 0.158156
vt 0.671875 0.500000
vt 0.961661 0.136865
vt 0.671875 1.000000
vt 0.461661 0.136865
vt 0.656250 0.500000
vt 0.949553 0.116663
vt 0.656250 1.000000
vt 0.449553 0.116663
vt 0.640625 0.500000
vt 0.935522 0.097746
vt 0.640625 1.000000
vt 0.435522 0.097746
vt 0.625000 0.500000
vt 0.919706 0.080294
vt 0.625000 1.000000
vt 0.419706 0.080294
vt 0.609375 0.500000
vt 0.902254 0.064477
vt 0.609375 1.000000
vt 0.402254 0.064477
vt 0.593750 0.500000
vt 0.883337 0.050447
vt 0.593750 1.000000
vt 0.383337 0.050447
vt 0.578125 0.500000
vt 0.863135 0.038339
vt 0.578125 1.000000
vt 0.363135 0.038339
vt 0.562500 0.500000
vt 0.841844 0.028269
vt 0.562500 1.000000
vt 0.341844 0.028269
vt 0.546875 0.500000
vt 0.819668 0.020334
vt 0.546875 1.000000
vt 0.319668 0.020334
vt 0.531250 0.500000
vt 0.796822 0.014612
vt 0.531250 1.000000
vt 0.296822 0.014612
vt 0.515625 0.500000
vt 0.773524 0.011156
vt 0.515625 1.000000
vt 0.273524 0.011156
vt 0.500000 0.500000
vt 0.750000 0.010000
vt 0.500000 1.000000
vt 0.250000 0.010000
vt 0.499423 1.000000
vt 0.249131 0.010043
vt 0.539227 0.727141
vt 0.499423 0.500000
vt 0.749131 0.010043
vt 0.398273 0.727141
vt 0.249131 0.489957
vt 0.000577 1.000000
vt 0.539227 0.522859
vt 0.000577 0.500000
vt 0.749131 0.489957
vt 0.398273 0.522859
s 0
f 1/1/1 2/4/1 4/9/1 3/7/1
f 3/7/2 4/9/2 6/13/2 5/11/2
f 5/11/3 6/13/3 8/17/3 7/15/3
f 7/15/4 8/17/4 10/21/4 9/19/4
f 9/19/5 10/21/5 12/25/5 11/23/5
f 11/23/6 12/25/6 14/29/6 13/27/6
f 13/27/7 14/29/7 16/33/7 15/31/7
f 15/31/8 16/33/8 18/37/8 17/35/8
f 17/35/9 18/37/9 20/41/9 19/39/9
f 19/39/10 20/41/10 22/45/10 21/43/10
f 21/43/11 22/45/11 24/49/11 23/47/11
f 23/47/12 24/49/12 26/53/12 25/51/12
f 25/51/13 26/53/13 28/57/13 27/55/13
f 27/55/14 28/57/14 30/61/14 29/59/14
f 29/59/15 30/61/15 32/65/15 31/63/15
f 31/63/16 32/65/16 34/69/16 33/67/16
f 33/67/17 34/69/17 36/73/17 35/71/17
f 35/71/18 36/73/18 38/77/18 37/75/18
f 37/75/19 38/77/19 40/81/19 39/79/19
f 39/79/20 40/81/20 42/85/20 41/83/20
f 41/83/21 42/85/21 44/89/21 43/87/21
f 43/87/22 44/89/22 46/93/22 45/91/22
f 45/91/23 46/93/23 48/97/23 47/95/23
f 47/95/24 48/97/24 50/101/24 49/99/24
f 49/99/25 50/101/25 52/105/25 51/103/25
f 51/103/26 52/105/26 54/109/26 53/107/26
f 53/107/27 54/109/27 56/113/27 55/111/27
f 55/111/28 56/113/28 58/117/28 57/115/28
f 57/115/29 58/117/29 60/121/29 59/119/29
f 59/119/30 60/121/30 62/125/30 61/123/30
f 61/123/31 62/125/31 64/129/31 63/127/31
f 63/127/32 64/129/32 66/133/32 65/131/32
f 68/138/33 65/131/33 66/133/33 67/135/33
f 67/136/34 66/134/34 64/130/34 62/126/34 60/122/34 58/118/34 56/114/34 54/110/34 52/106/34 50/102/34 48/98/34 46/94/34 44/90/34 42/86/34 40/82/34 38/78/34 36/74/34 34/70/34 32/66/34 30/62/34 28/58/34 26/54/34 24/50/34 22/46/34 20/42/34 18/38/34 16/34/34 14/30/34 12/26/34 10/22/34 8/18/34 6/14/34 4/10/34 2/5/34 69/141/34
f 69/142/35 2/6/35 1/2/35 70/144/35
f 1/3/36 3/8/36 5/12/36 7/16/36 9/20/36 11/24/36 13/28/36 15/32/36 17/36/36 19/40/36 21/44/36 23/48/36 25/52/36 27/56/36 29/60/36 31/64/36 33/68/36 35/72/36 37/76/36 39/80/36 41/84/36 43/88/36 45/92/36 47/96/36 49/100/36 51/104/36 53/108/36 55/112/36 57/116/36 59/120/36 61/124/36 63/128/36 65/132/36 68/139/36 70/145/36
f 67/137/37 69/143/37 70/146/37 68/140/37
