# Blender 3.1.0
# www.blender.org
mtllib cylinder_large.mtl
o Cylinder
v 0.000000 -30.000000 -5.700000
v 0.000000 30.000000 -5.700000
v 0.558698 -30.000000 -5.672553
v 0.558698 30.000000 -5.672553
v 1.112015 -30.000000 -5.590476
v 1.112015 30.000000 -5.590476
v 1.654623 -30.000000 -5.454560
v 1.654623 30.000000 -5.454560
v 2.181296 -30.000000 -5.266113
v 2.181296 30.000000 -5.266113
v 2.686961 -30.000000 -5.026951
v 2.686961 30.000000 -5.026951
v 3.166750 -30.000000 -4.739377
v 3.166750 30.000000 -4.739377
v 3.616042 -30.000000 -4.406160
v 3.616042 30.000000 -4.406160
v 4.030509 -30.000000 -4.030509
v 4.030509 30.000000 -4.030509
v 4.406159 -30.000000 -3.616042
v 4.406159 30.000000 -3.616042
v 4.739377 -30.000000 -3.166750
v 4.739377 30.000000 -3.166750
v 5.026951 -30.000000 -2.686961
v 5.026951 30.000000 -2.686961
v 5.266113 -30.000000 -2.181295
v 5.266113 30.000000 -2.181295
v 5.454560 -30.000000 -1.654622
v 5.454560 30.000000 -1.654622
v 5.590476 -30.000000 -1.112015
v 5.590476 30.000000 -1.112015
v 5.672553 -30.000000 -0.558698
v 5.672553 30.000000 -0.558698
v 5.700000 -30.000000 0.000000
v 5.700000 30.000000 0.000000
v 5.672553 -30.000000 0.558697
v 5.672553 30.000000 0.558697
v 5.590476 -30.000000 1.112015
v 5.590476 30.000000 1.112015
v 5.454559 -30.000000 1.654623
v 5.454559 30.000000 1.654623
v 5.266113 -30.000000 2.181295
v 5.266113 30.000000 2.181295
v 5.026951 -30.000000 2.686961
v 5.026951 30.000000 2.686961
v 4.739377 -30.000000 3.166750
v 4.739377 30.000000 3.166750
v 4.406160 -30.000000 3.616042
v 4.406160 30.000000 3.616042
v 4.030509 -30.000000 4.030509
v 4.030509 30.000000 4.030509
v 3.616042 -30.000000 4.406160
v 3.616042 30.000000 4.406160
v 3.166750 -30.000000 4.739377
v 3.166750 30.000000 4.739377
v 2.686962 -30.000000 5.026951
v 2.686962 30.000000 5.026951
v 2.181296 -30.000000 5.266113
v 2.181296 30.000000 5.266113
v 1.654623 -30.000000 5.454560
v 1.654623 30.000000 5.454560
v 1.112015 -30.000000 5.590476
v 1.112015 30.000000 5.590476
v 0.558697 -30.000000 5.672553
v 0.558697 30.000000 5.672553
v -0.000000 -30.000000 5.700000
v -0.000000 30.000000 5.700000
v -0.558697 -30.000000 5.672553
v -0.558697 30.000000 5.672553
v -1.112014 -30.000000 5.590476
v -1.112014 30.000000 5.590476
v -1.654623 -30.000000 5.454560
v -1.654623 30.000000 5.454560
v -2.181295 -30.000000 5.266113
v -2.181295 30.000000 5.266113
v -2.686961 -30.000000 5.026951
v -2.686961 30.000000 5.026951
v -3.166751 -30.000000 4.739376
v -3.166751 30.000000 4.739376
v -3.616041 -30.000000 4.406160
v -3.616041 30.000000 4.406160
v -4.030508 -30.000000 4.030509
v -4.030508 30.000000 4.030509
v -4.406159 -30.000000 3.616042
v -4.406159 30.000000 3.616042
v -4.739376 -30.000000 3.166751
v -4.739376 30.000000 3.166751
v -5.026951 -30.000000 2.686961
v -5.026951 30.000000 2.686961
v -5.266113 -30.000000 2.181296
v -5.266113 30.000000 2.181296
v -5.454560 -30.000000 1.654622
v -5.454560 30.000000 1.654622
v -5.590476 -30.000000 1.112015
v -5.590476 30.000000 1.112015
v -5.672553 -30.000000 0.558697
v -5.672553 30.000000 0.558697
v -5.700000 -30.000000 -0.000000
v -5.700000 30.000000 -0.000000
v -5.672553 -30.000000 -0.558697
v -5.672553 30.000000 -0.558697
v -5.590476 -30.000000 -1.112015
v -5.590476 30.000000 -1.112015
v -5.454560 -30.000000 -1.654622
v -5.454560 30.000000 -1.654622
v -5.266113 -30.000000 -2.181297
v -5.266113 30.000000 -2.181297
v -5.026951 -30.000000 -2.686961
v -5.026951 30.000000 -2.686961
v -4.739377 -30.000000 -3.166749
v -4.739377 30.000000 -3.166749
v -4.406159 -30.000000 -3.616042
v -4.406159 30.000000 -3.616042
v -4.030509 -30.000000 -4.030508
v -4.030509 30.000000 -4.030508
v -3.616041 -30.000000 -4.406160
v -3.616041 30.000000 -4.406160
v -3.166751 -30.000000 -4.739377
v -3.166751 30.000000 -4.739377
v -2.686960 -30.000000 -5.026951
v -2.686960 30.000000 -5.026951
v -2.181295 -30.000000 -5.266113
v -2.181295 30.000000 -5.266113
v -1.654624 -30.000000 -5.454559
v -1.654624 30.000000 -5.454559
v -1.112014 -30.000000 -5.590476
v -1.112014 30.000000 -5.590476
v -0.558698 -30.000000 -5.672553
v -0.558698 30.000000 -5.672553
vn 0.2797 -0.0000 -5.6931
vn 0.8364 -0.0000 -5.6383
vn 1.3850 -0.0000 -5.5292
vn 1.9203 -0.0000 -5.3668
vn 2.4371 -0.0000 -5.1527
vn 2.9304 -0.0000 -4.8891
vn 3.3955 -0.0000 -4.5783
vn 3.8279 -0.0000 -4.2234
vn 4.2234 -0.0000 -3.8279
vn 4.5783 -0.0000 -3.3955
vn 4.8891 -0.0000 -2.9304
vn 5.1527 -0.0000 -2.4371
vn 5.3668 -0.0000 -1.9203
vn 5.5292 -0.0000 -1.3850
vn 5.6383 -0.0000 -0.8364
vn 5.6931 -0.0000 -0.2797
vn 5.6931 -0.0000 0.2797
vn 5.6383 -0.0000 0.8364
vn 5.5292 -0.0000 1.3850
vn 5.3668 -0.0000 1.9203
vn 5.1527 -0.0000 2.4371
vn 4.8891 -0.0000 2.9304
vn 4.5783 -0.0000 3.3955
vn 4.2234 -0.0000 3.8279
vn 3.8279 -0.0000 4.2234
vn 3.3955 -0.0000 4.5783
vn 2.9304 -0.0000 4.8891
vn 2.4371 -0.0000 5.1527
vn 1.9203 -0.0000 5.3668
vn 1.3850 -0.0000 5.5292
vn 0.8364 -0.0000 5.6383
vn 0.2797 -0.0000 5.6931
vn -0.2797 -0.0000 5.6931
vn -0.8364 -0.0000 5.6383
vn -1.3850 -0.0000 5.5292
vn -1.9203 -0.0000 5.3668
vn -2.4371 -0.0000 5.1527
vn -2.9304 -0.0000 4.8891
vn -3.3955 -0.0000 4.5783
vn -3.8279 -0.0000 4.2234
vn -4.2234 -0.0000 3.8279
vn -4.5783 -0.0000 3.3955
vn -4.8891 -0.0000 2.9304
vn -5.1527 -0.0000 2.4371
vn -5.3668 -0.0000 1.9203
vn -5.5292 -0.0000 1.3850
vn -5.6383 -0.0000 0.8364
vn -5.6931 -0.0000 0.2797
vn -5.6931 -0.0000 -0.2797
vn -5.6383 -0.0000 -0.8364
vn -5.5292 -0.0000 -1.3850
vn -5.3668 -0.0000 -1.9203
vn -5.1527 -0.0000 -2.4371
vn -4.8891 -0.0000 -2.9304
vn -4.5783 -0.0000 -3.3955
vn -4.2234 -0.0000 -3.8279
vn -3.8279 -0.0000 -4.2234
vn -3.3955 -0.0000 -4.5783
vn -2.9304 -0.0000 -4.8891
vn -2.4371 -0.0000 -5.1527
vn -1.9203 -0.0000 -5.3668
vn -1.3850 -0.0000 -5.5292
vn -0.0000 30.0000 -0.0000
vn -0.8364 -0.0000 -5.6383
vn -0.2797 -0.0000 -5.6931
vn -0.0000 -30.0000 -0.0000
vt 1.000000 0.500000
vt 0.000000 0.500000
vt 0.750000 0.490000
vt 1.000000 1.000000
vt 0.250000 0.490000
vt 0.000000 1.000000
vt 0.984375 0.500000
vt 0.773524 0.488844
vt 0.984375 1.000000
vt 0.273524 0.488844
vt 0.968750 0.500000
vt 0.796822 0.485388
vt 0.968750 1.000000
vt 0.296822 0.485388
vt 0.953125 0.500000
vt 0.819668 0.479666
vt 0.953125 1.000000
vt 0.319668 0.479666
vt 0.937500 0.500000
vt 0.841844 0.471731
vt 0.937500 1.000000
vt 0.341844 0.471731
vt 0.921875 0.500000
vt 0.863135 0.461661
vt 0.921875 1.000000
vt 0.363135 0.461661
vt 0.906250 0.500000
vt 0.883337 0.449553
vt 0.906250 1.000000
vt 0.383337 0.449553
vt 0.890625 0.500000
vt 0.902254 0.435522
vt 0.890625 1.000000
vt 0.402254 0.435522
vt 0.875000 0.500000
vt 0.919706 0.419706
vt 0.875000 1.000000
vt 0.419706 0.419706
vt 0.859375 0.500000
vt 0.935522 0.402254
vt 0.859375 1.000000
vt 0.435522 0.402254
vt 0.843750 0.500000
vt 0.949553 0.383337
vt 0.843750 1.000000
vt 0.449553 0.383337
vt 0.828125 0.500000
vt 0.961661 0.363135
vt 0.828125 1.000000
vt 0.461661 0.363135
vt 0.812500 0.500000
vt 0.971731 0.341844
vt 0.812500 1.000000
vt 0.471731 0.341844
vt 0.796875 0.500000
vt 0.979666 0.319668
vt 0.796875 1.000000
vt 0.479666 0.319668
vt 0.781250 0.500000
vt 0.985388 0.296822
vt 0.781250 1.000000
vt 0.485388 0.296822
vt 0.765625 0.500000
vt 0.988844 0.273524
vt 0.765625 1.000000
vt 0.488844 0.273524
vt 0.750000 0.500000
vt 0.990000 0.250000
vt 0.750000 1.000000
vt 0.490000 0.250000
vt 0.734375 0.500000
vt 0.988844 0.226476
vt 0.734375 1.000000
vt 0.488844 0.226476
vt 0.718750 0.500000
vt 0.985388 0.203178
vt 0.718750 1.000000
vt 0.485388 0.203178
vt 0.703125 0.500000
vt 0.979666 0.180332
vt 0.703125 1.000000
vt 0.479666 0.180332
vt 0.687500 0.500000
vt 0.971731 0.158156
vt 0.687500 1.000000
vt 0.471731 0.158156
vt 0.671875 0.500000
vt 0.961661 0.136865
vt 0.671875 1.000000
vt 0.461661 0.136865
vt 0.656250 0.500000
vt 0.949553 0.116663
vt 0.656250 1.000000
vt 0.449553 0.116663
vt 0.640625 0.500000
vt 0.935522 0.097746
vt 0.640625 1.000000
vt 0.435522 0.097746
vt 0.625000 0.500000
vt 0.919706 0.080294
vt 0.625000 1.000000
vt 0.419706 0.080294
vt 0.609375 0.500000
vt 0.902254 0.064477
vt 0.609375 1.000000
vt 0.402254 0.064477
vt 0.593750 0.500000
vt 0.883337 0.050447
vt 0.593750 1.000000
vt 0.383337 0.050447
vt 0.578125 0.500000
vt 0.863135 0.038339
vt 0.578125 1.000000
vt 0.363135 0.038339
vt 0.562500 0.500000
vt 0.841844 0.028269
vt 0.562500 1.000000
vt 0.341844 0.028269
vt 0.546875 0.500000
vt 0.819668 0.020334
vt 0.546875 1.000000
vt 0.319668 0.020334
vt 0.531250 0.500000
vt 0.796822 0.014612
vt 0.531250 1.000000
vt 0.296822 0.014612
vt 0.515625 0.500000
vt 0.773524 0.011156
vt 0.515625 1.000000
vt 0.273524 0.011156
vt 0.500000 0.500000
vt 0.750000 0.010000
vt 0.500000 1.000000
vt 0.250000 0.010000
vt 0.484375 0.500000
vt 0.726476 0.011156
vt 0.484375 1.000000
vt 0.226476 0.011156
vt 0.468750 0.500000
vt 0.703178 0.014612
vt 0.468750 1.000000
vt 0.203178 0.014612
vt 0.453125 0.500000
vt 0.680332 0.020334
vt 0.453125 1.000000
vt 0.180332 0.020334
vt 0.437500 0.500000
vt 0.658156 0.028269
vt 0.437500 1.000000
vt 0.158156 0.028269
vt 0.421875 0.500000
vt 0.636865 0.038339
vt 0.421875 1.000000
vt 0.136865 0.038339
vt 0.406250 0.500000
vt 0.616663 0.050447
vt 0.406250 1.000000
vt 0.116663 0.050447
vt 0.390625 0.500000
vt 0.597746 0.064477
vt 0.390625 1.000000
vt 0.097746 0.064477
vt 0.375000 0.500000
vt 0.580294 0.080294
vt 0.375000 1.000000
vt 0.080294 0.080294
vt 0.359375 0.500000
vt 0.564478 0.097746
vt 0.359375 1.000000
vt 0.064478 0.097746
vt 0.343750 0.500000
vt 0.550447 0.116663
vt 0.343750 1.000000
vt 0.050447 0.116663
vt 0.328125 0.500000
vt 0.538339 0.136865
vt 0.328125 1.000000
vt 0.038339 0.136865
vt 0.312500 0.500000
vt 0.528269 0.158156
vt 0.312500 1.000000
vt 0.028269 0.158156
vt 0.296875 0.500000
vt 0.520334 0.180332
vt 0.296875 1.000000
vt 0.020334 0.180332
vt 0.281250 0.500000
vt 0.514612 0.203178
vt 0.281250 1.000000
vt 0.014612 0.203178
vt 0.265625 0.500000
vt 0.511156 0.226476
vt 0.265625 1.000000
vt 0.011156 0.226476
vt 0.250000 0.500000
vt 0.510000 0.250000
vt 0.250000 1.000000
vt 0.010000 0.250000
vt 0.234375 0.500000
vt 0.511156 0.273524
vt 0.234375 1.000000
vt 0.011156 0.273524
vt 0.218750 0.500000
vt 0.514612 0.296822
vt 0.218750 1.000000
vt 0.014612 0.296822
vt 0.203125 0.500000
vt 0.520334 0.319668
vt 0.203125 1.000000
vt 0.020334 0.319668
vt 0.187500 0.500000
vt 0.528269 0.341844
vt 0.187500 1.000000
vt 0.028269 0.341844
vt 0.171875 0.500000
vt 0.538339 0.363135
vt 0.171875 1.000000
vt 0.038339 0.363135
vt 0.156250 0.500000
vt 0.550447 0.383337
vt 0.156250 1.000000
vt 0.050447 0.383337
vt 0.140625 0.500000
vt 0.564478 0.402254
vt 0.140625 1.000000
vt 0.064478 0.402254
vt 0.125000 0.500000
vt 0.580294 0.419706
vt 0.125000 1.000000
vt 0.080294 0.419706
vt 0.109375 0.500000
vt 0.597746 0.435523
vt 0.109375 1.000000
vt 0.097746 0.435523
vt 0.093750 0.500000
vt 0.616663 0.449553
vt 0.093750 1.000000
vt 0.116663 0.449553
vt 0.078125 0.500000
vt 0.636865 0.461661
vt 0.078125 1.000000
vt 0.136865 0.461661
vt 0.062500 0.500000
vt 0.658156 0.471731
vt 0.062500 1.000000
vt 0.158156 0.471731
vt 0.046875 0.500000
vt 0.680332 0.479666
vt 0.046875 1.000000
vt 0.180332 0.479666
vt 0.031250 0.500000
vt 0.703178 0.485388
vt 0.203178 0.485388
vt 0.031250 1.000000
vt 0.015625 0.500000
vt 0.726476 0.488844
vt 0.226476 0.488844
vt 0.015625 1.000000
s 0
f 1/1/1 2/4/1 4/9/1 3/7/1
f 3/7/2 4/9/2 6/13/2 5/11/2
f 5/11/3 6/13/3 8/17/3 7/15/3
f 7/15/4 8/17/4 10/21/4 9/19/4
f 9/19/5 10/21/5 12/25/5 11/23/5
f 11/23/6 12/25/6 14/29/6 13/27/6
f 13/27/7 14/29/7 16/33/7 15/31/7
f 15/31/8 16/33/8 18/37/8 17/35/8
f 17/35/9 18/37/9 20/41/9 19/39/9
f 19/39/10 20/41/10 22/45/10 21/43/10
f 21/43/11 22/45/11 24/49/11 23/47/11
f 23/47/12 24/49/12 26/53/12 25/51/12
f 25/51/13 26/53/13 28/57/13 27/55/13
f 27/55/14 28/57/14 30/61/14 29/59/14
f 29/59/15 30/61/15 32/65/15 31/63/15
f 31/63/16 32/65/16 34/69/16 33/67/16
f 33/67/17 34/69/17 36/73/17 35/71/17
f 35/71/18 36/73/18 38/77/18 37/75/18
f 37/75/19 38/77/19 40/81/19 39/79/19
f 39/79/20 40/81/20 42/85/20 41/83/20
f 41/83/21 42/85/21 44/89/21 43/87/21
f 43/87/22 44/89/22 46/93/22 45/91/22
f 45/91/23 46/93/23 48/97/23 47/95/23
f 47/95/24 48/97/24 50/101/24 49/99/24
f 49/99/25 50/101/25 52/105/25 51/103/25
f 51/103/26 52/105/26 54/109/26 53/107/26
f 53/107/27 54/109/27 56/113/27 55/111/27
f 55/111/28 56/113/28 58/117/28 57/115/28
f 57/115/29 58/117/29 60/121/29 59/119/29
f 59/119/30 60/121/30 62/125/30 61/123/30
f 61/123/31 62/125/31 64/129/31 63/127/31
f 63/127/32 64/129/32 66/133/32 65/131/32
f 65/131/33 66/133/33 68/137/33 67/135/33
f 67/135/34 68/137/34 70/141/34 69/139/34
f 69/139/35 70/141/35 72/145/35 71/143/35
f 71/143/36 72/145/36 74/149/36 73/147/36
f 73/147/37 74/149/37 76/153/37 75/151/37
f 75/151/38 76/153/38 78/157/38 77/155/38
f 77/155/39 78/157/39 80/161/39 79/159/39
f 79/159/40 80/161/40 82/165/40 81/163/40
f 81/163/41 82/165/41 84/169/41 83/167/41
f 83/167/42 84/169/42 86/173/42 85/171/42
f 85/171/43 86/173/43 88/177/43 87/175/43
f 87/175/44 88/177/44 90/181/44 89/179/44
f 89/179/45 90/181/45 92/185/45 91/183/45
f 91/183/46 92/185/46 94/189/46 93/187/46
f 93/187/47 94/189/47 96/193/47 95/191/47
f 95/191/48 96/193/48 98/197/48 97/195/48
f 97/195/49 98/197/49 100/201/49 99/199/49
f 99/199/50 100/201/50 102/205/50 101/203/50
f 101/203/51 102/205/51 104/209/51 103/207/51
f 103/207/52 104/209/52 106/213/52 105/211/52
f 105/211/53 106/213/53 108/217/53 107/215/53
f 107/215/54 108/217/54 110/221/54 109/219/54
f 109/219/55 110/221/55 112/225/55 111/223/55
f 111/223/56 112/225/56 114/229/56 113/227/56
f 113/227/57 114/229/57 116/233/57 115/231/57
f 115/231/58 116/233/58 118/237/58 117/235/58
f 117/235/59 118/237/59 120/241/59 119/239/59
f 119/239/60 120/241/60 122/245/60 121/243/60
f 121/243/61 122/245/61 124/249/61 123/247/61
f 123/247/62 124/249/62 126/254/62 125/251/62
f 4/10/63 2/5/63 128/257/63 126/253/63 124/250/63 122/246/63 120/242/63 118/238/63 116/234/63 114/230/63 112/226/63 110/222/63 108/218/63 106/214/63 104/210/63 102/206/63 100/202/63 98/198/63 96/194/63 94/190/63 92/186/63 90/182/63 88/178/63 86/174/63 84/170/63 82/166/63 80/162/63 78/158/63 76/154/63 74/150/63 72/146/63 70/142/63 68/138/63 66/134/63 64/130/63 62/126/63 60/122/63 58/118/63 56/114/63 54/110/63 52/106/63 50/102/63 48/98/63 46/94/63 44/90/63 42/86/63 40/82/63 38/78/63 36/74/63 34/70/63 32/66/63 30/62/63 28/58/63 26/54/63 24/50/63 22/46/63 20/42/63 18/38/63 16/34/63 14/30/63 12/26/63 10/22/63 8/18/63 6/14/63
f 125/251/64 126/254/64 128/258/64 127/255/64
f 127/255/65 128/258/65 2/6/65 1/2/65
f 1/3/66 3/8/66 5/12/66 7/16/66 9/20/66 11/24/66 13/28/66 15/32/66 17/36/66 19/40/66 21/44/66 23/48/66 25/52/66 27/56/66 29/60/66 31/64/66 33/68/66 35/72/66 37/76/66 39/80/66 41/84/66 43/88/66 45/92/66 47/96/66 49/100/66 51/104/66 53/108/66 55/112/66 57/116/66 59/120/66 61/124/66 63/128/66 65/132/66 67/136/66 69/140/66 71/144/66 73/148/66 75/152/66 77/156/66 79/160/66 81/164/66 83/168/66 85/172/66 87/176/66 89/180/66 91/184/66 93/188/66 95/192/66 97/196/66 99/200/66 101/204/66 103/208/66 105/212/66 107/216/66 109/220/66 111/224/66 113/228/66 115/232/66 117/236/66 119/240/66 121/244/66 123/248/66 125/252/66 127/256/66
