# Blender 3.1.0
# www.blender.org
mtllib triangular_prism.mtl
o Cylinder
v 0.000000 -5.800000 -8.600000
v 0.000000 5.800000 -8.600000
v 14.376021 -5.800000 4.300001
v 14.376021 5.800000 4.300001
v -14.376022 -5.800000 4.299999
v -14.376022 5.800000 4.299999
vn 14.3760 -0.0000 -4.3000
vn -0.0000 -0.0000 8.6000
vn -0.0000 5.8000 -0.0000
vn -14.3760 -0.0000 -4.3000
vn -0.0000 -5.8000 -0.0000
vt 1.000000 0.500000
vt -0.000000 0.500000
vt 0.750000 0.490000
vt 1.000000 1.000000
vt 0.250000 0.490000
vt -0.000000 1.000000
vt 0.666667 0.500000
vt 0.957846 0.130000
vt 0.666667 1.000000
vt 0.457846 0.130000
vt 0.333333 0.500000
vt 0.542154 0.130000
vt 0.042154 0.130000
vt 0.333333 1.000000
s 0
f 1/1/1 2/4/1 4/9/1 3/7/1
f 3/7/2 4/9/2 6/14/2 5/11/2
f 4/10/3 2/5/3 6/13/3
f 5/11/4 6/14/4 2/6/4 1/2/4
f 1/3/5 3/8/5 5/12/5
